<mxfile host="Electron" modified="2023-12-06T12:34:35.349Z" agent="Mozilla/5.0 (Macintosh; Intel Mac OS X 10_15_7) AppleWebKit/537.36 (KHTML, like Gecko) draw.io/22.1.2 Chrome/114.0.5735.289 Electron/25.9.4 Safari/537.36" etag="PwrSbI7VPOUSbUvMdTKq" version="22.1.2" type="device">
  <diagram name="Page-1" id="WdF0uvdHSBn9TYJLdAh2">
    <mxGraphModel dx="756" dy="547" grid="0" gridSize="10" guides="1" tooltips="1" connect="1" arrows="1" fold="1" page="0" pageScale="1" pageWidth="827" pageHeight="1169" math="0" shadow="0">
      <root>
        <mxCell id="0" />
        <mxCell id="1" parent="0" />
        <mxCell id="eR4DkDl0TJ4s3Xxl-Lin-5" value="Entity" style="swimlane;fontStyle=1;align=center;verticalAlign=top;childLayout=stackLayout;horizontal=1;startSize=26;horizontalStack=0;resizeParent=1;resizeParentMax=0;resizeLast=0;collapsible=1;marginBottom=0;whiteSpace=wrap;html=1;" parent="1" vertex="1">
          <mxGeometry x="664" y="249" width="214" height="104" as="geometry" />
        </mxCell>
        <mxCell id="eR4DkDl0TJ4s3Xxl-Lin-8" value="+ showInfo(type): void" style="text;strokeColor=none;fillColor=none;align=left;verticalAlign=top;spacingLeft=4;spacingRight=4;overflow=hidden;rotatable=0;points=[[0,0.5],[1,0.5]];portConstraint=eastwest;whiteSpace=wrap;html=1;" parent="eR4DkDl0TJ4s3Xxl-Lin-5" vertex="1">
          <mxGeometry y="26" width="214" height="26" as="geometry" />
        </mxCell>
        <mxCell id="ukJ-wQabiHZeJAOtzUAp-1" value="+ readFromFile(Entity*): void" style="text;strokeColor=none;fillColor=none;align=left;verticalAlign=top;spacingLeft=4;spacingRight=4;overflow=hidden;rotatable=0;points=[[0,0.5],[1,0.5]];portConstraint=eastwest;whiteSpace=wrap;html=1;" vertex="1" parent="eR4DkDl0TJ4s3Xxl-Lin-5">
          <mxGeometry y="52" width="214" height="26" as="geometry" />
        </mxCell>
        <mxCell id="ukJ-wQabiHZeJAOtzUAp-2" value="+ writeToFile(Entity*, string): void" style="text;strokeColor=none;fillColor=none;align=left;verticalAlign=top;spacingLeft=4;spacingRight=4;overflow=hidden;rotatable=0;points=[[0,0.5],[1,0.5]];portConstraint=eastwest;whiteSpace=wrap;html=1;" vertex="1" parent="eR4DkDl0TJ4s3Xxl-Lin-5">
          <mxGeometry y="78" width="214" height="26" as="geometry" />
        </mxCell>
        <mxCell id="eR4DkDl0TJ4s3Xxl-Lin-9" value="Student" style="swimlane;fontStyle=0;childLayout=stackLayout;horizontal=1;startSize=26;fillColor=none;horizontalStack=0;resizeParent=1;resizeParentMax=0;resizeLast=0;collapsible=1;marginBottom=0;whiteSpace=wrap;html=1;" parent="1" vertex="1">
          <mxGeometry x="255" y="165" width="232" height="104" as="geometry" />
        </mxCell>
        <mxCell id="ukJ-wQabiHZeJAOtzUAp-4" value="+ writeToFile(Entity*, string): void" style="text;strokeColor=none;fillColor=none;align=left;verticalAlign=top;spacingLeft=4;spacingRight=4;overflow=hidden;rotatable=0;points=[[0,0.5],[1,0.5]];portConstraint=eastwest;whiteSpace=wrap;html=1;" vertex="1" parent="eR4DkDl0TJ4s3Xxl-Lin-9">
          <mxGeometry y="26" width="232" height="26" as="geometry" />
        </mxCell>
        <mxCell id="ukJ-wQabiHZeJAOtzUAp-3" value="+ readFromFile(Entity*): void" style="text;strokeColor=none;fillColor=none;align=left;verticalAlign=top;spacingLeft=4;spacingRight=4;overflow=hidden;rotatable=0;points=[[0,0.5],[1,0.5]];portConstraint=eastwest;whiteSpace=wrap;html=1;" vertex="1" parent="eR4DkDl0TJ4s3Xxl-Lin-9">
          <mxGeometry y="52" width="232" height="26" as="geometry" />
        </mxCell>
        <mxCell id="eR4DkDl0TJ4s3Xxl-Lin-10" value="+ showInfo(type): void" style="text;strokeColor=none;fillColor=none;align=left;verticalAlign=top;spacingLeft=4;spacingRight=4;overflow=hidden;rotatable=0;points=[[0,0.5],[1,0.5]];portConstraint=eastwest;whiteSpace=wrap;html=1;" parent="eR4DkDl0TJ4s3Xxl-Lin-9" vertex="1">
          <mxGeometry y="78" width="232" height="26" as="geometry" />
        </mxCell>
        <mxCell id="eR4DkDl0TJ4s3Xxl-Lin-13" value="" style="endArrow=block;endSize=16;endFill=0;html=1;rounded=0;exitX=0;exitY=0.5;exitDx=0;exitDy=0;" parent="1" source="eR4DkDl0TJ4s3Xxl-Lin-8" target="eR4DkDl0TJ4s3Xxl-Lin-9" edge="1">
          <mxGeometry width="160" relative="1" as="geometry">
            <mxPoint x="510" y="316" as="sourcePoint" />
            <mxPoint x="539" y="271" as="targetPoint" />
          </mxGeometry>
        </mxCell>
        <mxCell id="eR4DkDl0TJ4s3Xxl-Lin-14" value="University" style="swimlane;fontStyle=0;childLayout=stackLayout;horizontal=1;startSize=26;fillColor=none;horizontalStack=0;resizeParent=1;resizeParentMax=0;resizeLast=0;collapsible=1;marginBottom=0;whiteSpace=wrap;html=1;" parent="1" vertex="1">
          <mxGeometry x="244" y="295" width="227" height="104" as="geometry" />
        </mxCell>
        <mxCell id="ukJ-wQabiHZeJAOtzUAp-5" value="+ readFromFile(Entity*): void" style="text;strokeColor=none;fillColor=none;align=left;verticalAlign=top;spacingLeft=4;spacingRight=4;overflow=hidden;rotatable=0;points=[[0,0.5],[1,0.5]];portConstraint=eastwest;whiteSpace=wrap;html=1;" vertex="1" parent="eR4DkDl0TJ4s3Xxl-Lin-14">
          <mxGeometry y="26" width="227" height="26" as="geometry" />
        </mxCell>
        <mxCell id="ukJ-wQabiHZeJAOtzUAp-6" value="+ writeToFile(Entity*, string): void" style="text;strokeColor=none;fillColor=none;align=left;verticalAlign=top;spacingLeft=4;spacingRight=4;overflow=hidden;rotatable=0;points=[[0,0.5],[1,0.5]];portConstraint=eastwest;whiteSpace=wrap;html=1;" vertex="1" parent="eR4DkDl0TJ4s3Xxl-Lin-14">
          <mxGeometry y="52" width="227" height="26" as="geometry" />
        </mxCell>
        <mxCell id="eR4DkDl0TJ4s3Xxl-Lin-15" value="+ showInfo(type): void" style="text;strokeColor=none;fillColor=none;align=left;verticalAlign=top;spacingLeft=4;spacingRight=4;overflow=hidden;rotatable=0;points=[[0,0.5],[1,0.5]];portConstraint=eastwest;whiteSpace=wrap;html=1;" parent="eR4DkDl0TJ4s3Xxl-Lin-14" vertex="1">
          <mxGeometry y="78" width="227" height="26" as="geometry" />
        </mxCell>
        <mxCell id="eR4DkDl0TJ4s3Xxl-Lin-18" value="" style="endArrow=block;endSize=16;endFill=0;html=1;rounded=0;exitX=0;exitY=0.5;exitDx=0;exitDy=0;entryX=1;entryY=0.25;entryDx=0;entryDy=0;" parent="1" source="eR4DkDl0TJ4s3Xxl-Lin-8" target="eR4DkDl0TJ4s3Xxl-Lin-14" edge="1">
          <mxGeometry width="160" relative="1" as="geometry">
            <mxPoint x="597" y="252" as="sourcePoint" />
            <mxPoint x="476" y="260" as="targetPoint" />
          </mxGeometry>
        </mxCell>
        <mxCell id="eR4DkDl0TJ4s3Xxl-Lin-19" value="Faculty" style="swimlane;fontStyle=0;childLayout=stackLayout;horizontal=1;startSize=26;fillColor=none;horizontalStack=0;resizeParent=1;resizeParentMax=0;resizeLast=0;collapsible=1;marginBottom=0;whiteSpace=wrap;html=1;" parent="1" vertex="1">
          <mxGeometry x="258" y="440" width="223" height="104" as="geometry" />
        </mxCell>
        <mxCell id="ukJ-wQabiHZeJAOtzUAp-7" value="+ readFromFile(Entity*): void" style="text;strokeColor=none;fillColor=none;align=left;verticalAlign=top;spacingLeft=4;spacingRight=4;overflow=hidden;rotatable=0;points=[[0,0.5],[1,0.5]];portConstraint=eastwest;whiteSpace=wrap;html=1;" vertex="1" parent="eR4DkDl0TJ4s3Xxl-Lin-19">
          <mxGeometry y="26" width="223" height="26" as="geometry" />
        </mxCell>
        <mxCell id="eR4DkDl0TJ4s3Xxl-Lin-20" value="+ showInfo(type): void" style="text;strokeColor=none;fillColor=none;align=left;verticalAlign=top;spacingLeft=4;spacingRight=4;overflow=hidden;rotatable=0;points=[[0,0.5],[1,0.5]];portConstraint=eastwest;whiteSpace=wrap;html=1;" parent="eR4DkDl0TJ4s3Xxl-Lin-19" vertex="1">
          <mxGeometry y="52" width="223" height="26" as="geometry" />
        </mxCell>
        <mxCell id="ukJ-wQabiHZeJAOtzUAp-8" value="+ writeToFile(Entity*, string): void" style="text;strokeColor=none;fillColor=none;align=left;verticalAlign=top;spacingLeft=4;spacingRight=4;overflow=hidden;rotatable=0;points=[[0,0.5],[1,0.5]];portConstraint=eastwest;whiteSpace=wrap;html=1;" vertex="1" parent="eR4DkDl0TJ4s3Xxl-Lin-19">
          <mxGeometry y="78" width="223" height="26" as="geometry" />
        </mxCell>
        <mxCell id="eR4DkDl0TJ4s3Xxl-Lin-21" value="" style="endArrow=block;endSize=16;endFill=0;html=1;rounded=0;exitX=0;exitY=0.5;exitDx=0;exitDy=0;entryX=1;entryY=0.25;entryDx=0;entryDy=0;" parent="1" source="eR4DkDl0TJ4s3Xxl-Lin-8" target="eR4DkDl0TJ4s3Xxl-Lin-19" edge="1">
          <mxGeometry width="160" relative="1" as="geometry">
            <mxPoint x="597" y="286" as="sourcePoint" />
            <mxPoint x="476" y="323" as="targetPoint" />
          </mxGeometry>
        </mxCell>
      </root>
    </mxGraphModel>
  </diagram>
</mxfile>
